<?xml version="1.0" encoding="utf-8"?>
<!-- Generator: Adobe Illustrator 16.0.0, SVG Export Plug-In . SVG Version: 6.00 Build 0)  -->
<!DOCTYPE svg PUBLIC "-//W3C//DTD SVG 1.1//EN" "http://www.w3.org/Graphics/SVG/1.1/DTD/svg11.dtd">
<svg version="1.1" id="Layer_1" xmlns="http://www.w3.org/2000/svg" xmlns:xlink="http://www.w3.org/1999/xlink" x="0px" y="0px"
	 width="1400px" height="980px" viewBox="0 0 1400 980" enable-background="new 0 0 1400 980" xml:space="preserve">
<g>
	<g>
		<rect fill="#000" width="1399.994" height="980"/>
	</g>
	<g>
		<g>
			<path fill="#FFFFFF" d="M324.762,641.855v26.911c0,11.243,9.116,20.359,20.359,20.359h702.852
				c11.238,0,20.359-9.116,20.359-20.359v-26.911H324.762z"/>
			<path d="M1047.973,690.457H345.121c-11.96,0-21.69-9.729-21.69-21.69v-28.242h746.233v28.242
				C1069.663,680.728,1059.934,690.457,1047.973,690.457z M326.093,643.187v25.58c0,10.492,8.536,19.028,19.028,19.028h702.852
				c10.491,0,19.027-8.536,19.027-19.028v-25.58H326.093z"/>
		</g>
		<g>
			<path fill="#23454E" d="M1068.332,244.519c0-11.246-9.121-20.359-20.359-20.359H345.121c-11.243,0-20.359,9.113-20.359,20.359
				v397.336h743.57V244.519z"/>
			<path d="M1069.663,643.187H323.43V244.519c0-11.96,9.73-21.69,21.69-21.69h702.852c11.961,0,21.69,9.73,21.69,21.69V643.187z
				 M326.093,640.524H1067V244.519c0-10.492-8.536-19.028-19.027-19.028H345.121c-10.492,0-19.028,8.536-19.028,19.028V640.524z"/>
		</g>
	</g>
	<g>
		<rect x="359.775" y="256.854" fill="#FFFFFF" width="673.543" height="352.305"/>
		<path d="M1034.649,610.49H358.444V255.523h676.206V610.49z M361.106,607.827h670.881V258.185H361.106V607.827z"/>
	</g>
	<g>
		<rect x="611.811" y="689.126" fill="#BDBDBD" width="168" height="92.882"/>
		<path d="M781.142,783.339H610.479v-95.544h170.662V783.339z M613.142,780.677h165.337v-90.22H613.142V780.677z"/>
	</g>
	<g>
		<path fill="#FFFFFF" d="M846.387,819.483v-21.196c0-8.988-7.29-16.279-16.279-16.279H561.514c-8.991,0-16.282,7.291-16.282,16.279
			v21.196H846.387z"/>
		<path d="M847.719,820.814H543.901v-22.527c0-9.711,7.902-17.61,17.613-17.61h268.593c9.712,0,17.611,7.899,17.611,17.61V820.814z
			 M546.563,818.152h298.492v-19.865c0-8.242-6.706-14.948-14.948-14.948H561.514c-8.245,0-14.951,6.706-14.951,14.948V818.152z"/>
	</g>
	<g>
		<g>
			<g>
				<rect x="480.005" y="325.606" fill="#A5B83B" width="330.269" height="167.47"/>
			</g>
			<g>
				<path d="M811.605,494.407H478.674V324.275h332.932V494.407z M481.336,491.745h327.606V326.938H481.336V491.745z"/>
			</g>
		</g>
		<g>
			<g>
				<path fill="#C0D548" d="M796.701,461.37V357.313c-10.016,0-18.136-8.12-18.136-18.136H511.711
					c0,10.016-8.118,18.136-18.133,18.136V461.37c10.016,0,18.133,8.117,18.133,18.133h266.854
					C778.565,469.487,786.686,461.37,796.701,461.37z"/>
			</g>
			<g>
				<path d="M779.896,480.834H510.38v-1.331c0-9.265-7.538-16.802-16.802-16.802h-1.331v-106.72h1.331
					c9.264,0,16.802-7.538,16.802-16.805v-1.331h269.517v1.331c0,9.267,7.538,16.805,16.805,16.805h1.331v106.72h-1.331
					c-9.267,0-16.805,7.538-16.805,16.802V480.834z M512.998,478.172h264.28c0.657-9.675,8.416-17.431,18.092-18.089V358.6
					c-9.676-0.658-17.435-8.417-18.092-18.092h-264.28c-0.658,9.675-8.414,17.434-18.089,18.092v101.483
					C504.584,460.741,512.34,468.497,512.998,478.172z"/>
			</g>
		</g>
		<g>
			<g>
				<circle fill="#A5B83B" cx="645.141" cy="409.341" r="54.856"/>
			</g>
			<g>
				<path d="M645.14,465.53c-30.981,0-56.187-25.206-56.187-56.189c0-30.98,25.206-56.186,56.187-56.186
					c30.983,0,56.188,25.206,56.188,56.186C701.328,440.325,676.123,465.53,645.14,465.53z M645.14,355.817
					c-29.514,0-53.524,24.01-53.524,53.524s24.01,53.526,53.524,53.526c29.514,0,53.526-24.012,53.526-53.526
					S674.653,355.817,645.14,355.817z"/>
			</g>
		</g>
		<g>
			<g>
				<path fill="#C0D548" d="M681.544,409.341c0,20.107-16.298,36.407-36.404,36.407c-20.109,0-36.407-16.3-36.407-36.407
					c0-20.109,16.298-36.407,36.407-36.407C665.246,372.934,681.544,389.232,681.544,409.341z"/>
			</g>
			<g>
				<path d="M645.14,447.08c-20.809,0-37.738-16.929-37.738-37.738s16.929-37.738,37.738-37.738
					c20.806,0,37.735,16.929,37.735,37.738S665.946,447.08,645.14,447.08z M645.14,374.266c-19.34,0-35.076,15.736-35.076,35.076
					s15.736,35.076,35.076,35.076s35.073-15.736,35.073-35.076S664.479,374.266,645.14,374.266z"/>
			</g>
		</g>
	</g>
	<g>
		<g>
			<g>
				<rect x="567.083" y="388.176" fill="#A5B83B" width="330.266" height="167.469"/>
			</g>
			<g>
				<path d="M898.681,556.977H565.752V386.845h332.929V556.977z M568.415,554.314h327.604V389.507H568.415V554.314z"/>
			</g>
		</g>
		<g>
			<g>
				<path fill="#C0D548" d="M883.779,523.942V419.88c-10.018,0-18.136-8.118-18.136-18.131H598.79
					c0,10.013-8.118,18.131-18.133,18.131v104.063c10.016,0,18.133,8.114,18.133,18.131h266.854
					C865.644,532.057,873.762,523.942,883.779,523.942z"/>
			</g>
			<g>
				<path d="M866.975,543.404H597.458v-1.331c0-9.265-7.538-16.8-16.802-16.8h-1.332V418.548h1.332
					c9.264,0,16.802-7.535,16.802-16.799v-1.332h269.517v1.332c0,9.264,7.538,16.799,16.805,16.799h1.331v106.725h-1.331
					c-9.267,0-16.805,7.535-16.805,16.8V543.404z M600.077,540.741h264.28c0.658-9.672,8.417-17.429,18.092-18.086V421.167
					c-9.675-0.658-17.434-8.414-18.092-18.086h-264.28c-0.658,9.673-8.414,17.429-18.089,18.086v101.489
					C591.663,523.313,599.419,531.069,600.077,540.741z"/>
			</g>
		</g>
		<g>
			<g>
				<path fill="#A5B83B" d="M787.073,471.911c0,30.297-24.559,54.854-54.86,54.854c-30.294,0-54.853-24.558-54.853-54.854
					s24.559-54.858,54.853-54.858C762.515,417.053,787.073,441.614,787.073,471.911z"/>
			</g>
			<g>
				<path d="M732.213,528.097c-30.98,0-56.184-25.205-56.184-56.186c0-30.983,25.204-56.189,56.184-56.189
					c30.982,0,56.191,25.206,56.191,56.189C788.404,502.892,763.195,528.097,732.213,528.097z M732.213,418.385
					c-29.512,0-53.521,24.012-53.521,53.526c0,29.514,24.01,53.523,53.521,53.523c29.517,0,53.528-24.01,53.528-53.523
					C785.741,442.397,761.729,418.385,732.213,418.385z"/>
			</g>
		</g>
		<g>
			<g>
				<path fill="#C0D548" d="M768.625,471.911c0,20.106-16.303,36.407-36.412,36.407c-20.104,0-36.405-16.301-36.405-36.407
					c0-20.107,16.3-36.407,36.405-36.407C752.322,435.504,768.625,451.804,768.625,471.911z"/>
			</g>
			<g>
				<path d="M732.213,509.649c-20.807,0-37.736-16.93-37.736-37.738c0-20.809,16.929-37.739,37.736-37.739
					c20.812,0,37.743,16.93,37.743,37.739C769.956,492.72,753.024,509.649,732.213,509.649z M732.213,436.835
					c-19.34,0-35.073,15.736-35.073,35.076s15.733,35.075,35.073,35.075c19.345,0,35.081-15.735,35.081-35.075
					S751.558,436.835,732.213,436.835z"/>
			</g>
		</g>
	</g>
	<g>
		<path fill="#FF6B36" d="M998.648,665.488c0,5.156-4.179,9.332-9.33,9.332l0,0c-5.153,0-9.331-4.176-9.331-9.332l0,0
			c0-5.153,4.178-9.332,9.331-9.332l0,0C994.47,656.156,998.648,660.335,998.648,665.488L998.648,665.488z"/>
		<path d="M989.318,676.151c-5.879,0-10.663-4.784-10.663-10.663s4.784-10.663,10.663-10.663s10.661,4.784,10.661,10.663
			S995.197,676.151,989.318,676.151z M989.318,657.487c-4.412,0-8,3.588-8,8.001c0,4.412,3.588,8,8,8c4.41,0,7.998-3.588,7.998-8
			C997.316,661.075,993.729,657.487,989.318,657.487z"/>
	</g>
	<g>
		<path fill="#6CDEFF" d="M1031.732,665.488c0,5.156-4.182,9.332-9.329,9.332l0,0c-5.154,0-9.332-4.176-9.332-9.332l0,0
			c0-5.153,4.178-9.332,9.332-9.332l0,0C1027.551,656.156,1031.732,660.335,1031.732,665.488L1031.732,665.488z"/>
		<path d="M1022.403,676.151c-5.879,0-10.663-4.784-10.663-10.663s4.784-10.663,10.663-10.663s10.66,4.784,10.66,10.663
			S1028.282,676.151,1022.403,676.151z M1022.403,657.487c-4.413,0-8.001,3.588-8.001,8.001c0,4.412,3.588,8,8.001,8
			c4.409,0,7.997-3.588,7.997-8C1030.4,661.075,1026.813,657.487,1022.403,657.487z"/>
	</g>
	<g>
		<g>
			<g>
				<path d="M165.909,386.845c-6.079,0-11.022-4.956-11.022-11.04V374.5l-1.287-0.398c-13.593-1.625-23.807-13.102-23.807-26.698
					v-5.286l-8.463-8.575l0.083-7.889l7.314-2.824l-7.397-7.397l0.083-7.905l8.38-3.234v-8.287h80.412v14.29l8.383,3.245v8.107
					l-7.312,7.192l7.312,2.824v8.102l-8.31,8.177l-0.106,0.668c-0.543,12.117-8.846,22.14-20.658,24.938
					c-1.066,0.255-2.064,0.429-3.055,0.541l-1.35,0.148v1.36c0,6.199-4.943,11.245-11.019,11.245H165.909z M157.428,375.805
					c0,4.686,3.804,8.5,8.481,8.5h8.18c4.675,0,8.476-3.814,8.476-8.5v-4.062l1.238-0.026c1.893-0.042,3.521-0.242,5.133-0.634
					c10.983-2.608,18.685-12.312,18.731-23.599v-0.64l8.294-8.159l0.081-5.278l-9.316-3.614l9.236-9.233l0.081-5.275l-8.375-3.24
					v-13.498h-75.331v7.486l-8.383,3.232v5.081l9.324,9.441l-9.324,3.604v5.065l8.466,8.572l-0.083,6.375
					c0,13.128,10.699,24.039,23.854,24.325l1.238,0.031V375.805z"/>
			</g>
		</g>
		<g>
			<g>
				<path d="M126.902,287.364l-8.536-39.886l-0.455-0.439c-39.922-31.23-39.348-76.228-39.303-78.129
					c2.137-44.959,25.387-66.529,44.514-76.709c18.65-9.933,37.546-11.547,44.803-11.781l0.952-0.031l3.523,0.016
					c7.397,0.188,26.659,1.713,45.581,11.797c19.142,10.2,42.405,31.761,44.52,76.55c0.047,1.896,0.697,46.995-39.304,78.288
					l-0.354,0.275l-8.643,40.05H126.902z M189.513,284.824h22.631l8.354-38.989l0.351-0.177
					c39.865-30.604,39.153-74.941,39.101-76.813c-2.049-43.573-24.603-64.515-43.162-74.405
					c-19.649-10.468-39.532-11.461-45.157-11.516l-2.795,0.18l-0.899-0.127c-7.15,0.252-25.614,1.877-43.625,11.464
					c-18.544,9.873-41.087,30.822-43.167,74.564c-0.042,1.88-0.546,46.223,39.111,76.649l0.466,0.351l8.224,38.82h26.88
					l-26.183-132.318l24.454,22.65l12.346-10.289l16.508,11.924l22.629-24.438L189.513,284.824z M158.418,284.824h28.531
					l15.162-124.991l-18.833,20.338l-16.719-12.093l-12.545,10.458l-20.362-18.859L158.418,284.824z"/>
			</g>
		</g>
	</g>
	<g>
		<path d="M1296.826,321.628h-116.272c-11.618,0-23.5-9.134-26.493-20.362l-33.362-125.433h194.167
			c5.721,0,10.843,2.233,14.424,6.292c3.577,4.059,5.158,9.42,4.443,15.097l-13.032,103.35
			C1319.239,312.182,1308.529,321.628,1296.826,321.628z M1124.162,178.497l32.473,122.084c2.699,10.138,13.43,18.385,23.919,18.385
			h116.272c10.408,0,19.933-8.401,21.232-18.726l13.032-103.35c0.616-4.906-0.733-9.524-3.799-13.003
			c-3.068-3.477-7.48-5.39-12.427-5.39H1124.162z"/>
	</g>
	<g>
		<polygon points="1130.465,212.587 1107.367,129.174 1077.308,129.174 1077.308,126.512 1109.396,126.512 1109.663,127.487 
			1133.028,211.875 		"/>
	</g>
	<g>
		<rect x="1165.951" y="216.991" width="124.247" height="2.663"/>
	</g>
	<g>
		<rect x="1179.029" y="257.681" width="104.63" height="2.663"/>
	</g>
	<g>
		<rect x="1206.035" y="208.151" width="2.662" height="78.469"/>
	</g>
	<g>
		<rect x="1249.631" y="197.979" width="2.663" height="69.751"/>
	</g>
	<g>
		<path d="M1276.124,818.644c-3.781,0-7.325-1.461-9.979-4.116l-112.211-112.208c-5.18-5.183-9.771-15.344-10.237-22.65
			l-4.514-71.126c-0.231-3.628,0.937-7.011,3.292-9.52c2.532-2.701,6.1-4.079,10.067-3.838l71.119,4.517
			c7.312,0.468,17.473,5.063,22.655,10.239l112.205,112.206c5.502,5.502,5.502,14.457,0,19.959l-72.418,72.421
			C1283.448,817.183,1279.901,818.644,1276.124,818.644z M1151.645,597.819c-2.831,0-5.397,1.074-7.228,3.024
			c-1.847,1.968-2.762,4.644-2.577,7.53l4.514,71.126c0.424,6.641,4.756,16.228,9.462,20.937l112.212,112.209
			c2.152,2.149,5.025,3.336,8.097,3.336c3.067,0,5.943-1.187,8.097-3.336l72.419-72.422c2.152-2.153,3.336-5.026,3.339-8.097
			c0-3.068-1.187-5.944-3.339-8.097l-112.206-112.206c-4.709-4.704-14.299-9.038-20.941-9.465l-71.119-4.517
			C1152.126,597.827,1151.885,597.819,1151.645,597.819z"/>
	</g>
	<g>
		<path d="M1171.18,640.875c-3.655,0-7.093-1.422-9.675-4.007c-5.336-5.338-5.336-14.024,0-19.36
			c2.582-2.582,6.02-4.004,9.675-4.004c3.656,0,7.096,1.422,9.681,4.004c2.587,2.585,4.012,6.021,4.012,9.681
			c0,3.655-1.425,7.093-4.012,9.68C1178.275,639.453,1174.838,640.875,1171.18,640.875z M1171.18,616.166
			c-2.945,0-5.712,1.145-7.793,3.225c-4.298,4.298-4.298,11.295,0,15.596c2.081,2.08,4.848,3.227,7.793,3.227
			c2.946,0,5.715-1.146,7.798-3.227c2.083-2.083,3.232-4.854,3.232-7.798c0-2.946-1.149-5.716-3.232-7.798
			C1176.895,617.311,1174.126,616.166,1171.18,616.166z"/>
	</g>
	<g>
		<path d="M1142.555,600.836c-0.892-0.892-21.908-21.979-26.445-32.026c-6.47-14.329-7.197-31.303-7.899-47.72
			c-1.3-30.323-2.527-58.966-40.12-65.869l0.483-2.621c39.679,7.291,40.95,36.963,42.297,68.378
			c0.691,16.163,1.406,32.876,7.667,46.735c4.338,9.61,25.685,31.024,25.9,31.24L1142.555,600.836z"/>
	</g>
	<g>
		<path d="M1247.102,572.583c-47.466,0-86.083-38.617-86.083-86.083c0-47.465,38.617-86.083,86.083-86.083
			c47.465,0,86.082,38.617,86.082,86.083C1333.184,533.966,1294.566,572.583,1247.102,572.583z M1247.102,403.08
			c-45.999,0-83.421,37.421-83.421,83.42c0,45.999,37.422,83.42,83.421,83.42c45.998,0,83.42-37.421,83.42-83.42
			C1330.521,440.501,1293.1,403.08,1247.102,403.08z"/>
	</g>
	<g>
		<g>
			<path d="M1249.649,555.331V542h-2.104c-0.772,0-1.589-0.019-2.455-0.072c-0.878-0.045-1.744-0.117-2.615-0.214l-1.184-0.13
				v13.747h-3.192v-14.288l-0.819-0.195c-5.619-1.331-10.437-3.884-14.324-7.587c-6.061-5.78-9.603-13.778-10.535-23.78h2.74
				c0.767,9.157,4.04,16.526,9.735,21.919c3.148,3.153,7.135,5.486,11.827,6.914l1.376,0.418v-44.909l3.192,0.889v44.522
				l0.893,0.148c1.843,0.304,3.697,0.46,5.507,0.46h1.958v-40.871l3.195,0.798v39.793l1.22-0.177
				c6.287-0.91,11.692-3.178,16.066-6.74c5.86-4.727,8.838-11.037,8.838-18.752c0-8.541-3.508-15.07-10.422-19.41
				c-3.403-2.057-10.463-4.61-21.6-7.818l-1.902-0.585c-12.144-3.404-19.816-6.56-22.832-9.389
				c-4.795-4.319-7.216-9.982-7.216-16.844c0-7.941,2.818-14.498,8.38-19.491c3.869-3.302,8.534-5.465,13.844-6.412l0.879-0.156
				v-16.118h3.192v15.733l1.235-0.2c0.538-0.086,1.076-0.127,1.609-0.127h3.11c0.335,0,0.712,0.042,1.134,0.122l1.269,0.247v-15.775
				h3.195v15.991l0.905,0.141c6.18,0.954,11.472,3.453,15.726,7.426c5.556,5.008,8.702,12.052,9.368,20.957h-2.582
				c-0.411-8.079-3.3-14.604-8.602-19.413c-3.78-3.474-8.338-5.754-13.544-6.773l-1.271-0.25v41.355l-3.195-0.89v-41.131h-5.658
				c-0.665,0-1.274,0.063-1.836,0.172l-0.863,0.166v37.978l-3.192-0.886v-36.818l-1.313,0.314
				c-4.698,1.121-8.591,3.045-11.573,5.723c-5.047,4.423-7.61,10.521-7.61,18.115c0,5.812,2.307,10.908,6.856,15.148
				c3.438,3.123,10.463,6.009,21.487,8.833c0.07,0.076,0.461,0.19,0.946,0.25c0.242,0.039,0.594,0.143,1.012,0.304
				c5.676,1.407,10.416,2.84,14.213,4.301c3.777,1.451,6.81,2.865,9.012,4.207c7.221,4.662,10.741,11.103,10.741,19.673
				c0,8.913-3.112,16.115-9.254,21.409c-4.839,4.08-11.184,6.688-18.851,7.746l-0.921,0.127v13.487H1249.649z"/>
		</g>
	</g>
	<g>
		<g>
			<line fill="#FFFFFF" x1="592.7" y1="930.049" x2="706.521" y2="816.233"/>
			
				<rect x="648.279" y="792.66" transform="matrix(0.707 0.7072 -0.7072 0.707 807.8099 -203.5862)" width="2.662" height="160.963"/>
		</g>
		<g>
			<line fill="#FFFFFF" x1="731.409" y1="840.523" x2="695.943" y2="875.992"/>
			
				<rect x="712.345" y="833.179" transform="matrix(0.7071 0.7071 -0.7071 0.7071 815.9108 -253.2673)" width="2.663" height="50.158"/>
		</g>
		<g>
			<path fill="#FFFFFF" d="M852.315,828.834c-37.239,37.238-97.617,37.238-134.856,0c-37.239-37.237-37.239-97.617,0-134.856
				c37.239-37.236,97.617-37.236,134.856,0C889.555,731.217,889.555,791.597,852.315,828.834z"/>
			<path d="M784.889,858.096c-25.827,0-50.109-10.058-68.37-28.321c-18.264-18.261-28.321-42.54-28.321-68.367
				s10.057-50.11,28.321-68.371c18.261-18.261,42.543-28.317,68.37-28.317c25.824,0,50.107,10.057,68.368,28.317
				c18.263,18.261,28.32,42.544,28.32,68.371s-10.058,50.106-28.32,68.367C834.996,848.038,810.713,858.096,784.889,858.096z
				 M784.889,667.381c-25.117,0-48.729,9.779-66.488,27.538c-17.759,17.759-27.54,41.371-27.54,66.488
				c0,25.114,9.781,48.727,27.54,66.485c17.76,17.759,41.371,27.54,66.488,27.54c25.114,0,48.727-9.781,66.485-27.54
				s27.541-41.371,27.541-66.485c0-25.117-9.782-48.729-27.541-66.488S810.003,667.381,784.889,667.381z"/>
		</g>
		<g>
			<circle fill="#FFFFFF" cx="784.889" cy="761.407" r="73.87"/>
			<path d="M784.889,836.605c-20.086,0-38.971-7.821-53.175-22.023c-14.205-14.202-22.026-33.087-22.026-53.175
				c0-20.086,7.821-38.971,22.026-53.176c14.204-14.202,33.089-22.022,53.175-22.022c20.089,0,38.974,7.82,53.176,22.022
				c29.318,29.324,29.318,77.031,0,106.351C823.862,828.784,804.978,836.605,784.889,836.605z M784.889,688.871
				c-19.376,0-37.593,7.543-51.293,21.243s-21.245,31.917-21.245,51.293s7.545,37.593,21.245,51.292
				c13.7,13.7,31.917,21.243,51.293,21.243s37.593-7.543,51.293-21.243c28.279-28.281,28.279-74.301,0-102.585
				C822.481,696.414,804.265,688.871,784.889,688.871z"/>
		</g>
		<g>
			<line fill="#FFFFFF" x1="817.177" y1="761.878" x2="747.845" y2="761.878"/>
			<rect x="747.845" y="760.546" width="69.332" height="2.663"/>
		</g>
		<g>
			<line fill="#FFFFFF" x1="803.409" y1="804.138" x2="763.519" y2="804.138"/>
			<rect x="763.519" y="802.807" width="39.891" height="2.662"/>
		</g>
	</g>
	<g>
		<g>
			<path d="M283.49,442.815H57.614v-28.378H283.49V442.815z M60.276,440.153h220.551V417.1H60.276V440.153z"/>
		</g>
		<g>
			<path d="M283.49,616.655H57.614V440.153H283.49V616.655z M60.276,613.992h220.551V442.815H60.276V613.992z"/>
		</g>
		<g>
			<path d="M283.49,785.352H57.614V734.34H283.49V785.352z M60.276,782.689h220.551v-45.688H60.276V782.689z"/>
		</g>
		<g>
			<path d="M283.49,696.885H57.614v-42.777H283.49V696.885z M60.276,694.222h220.551V656.77H60.276V694.222z"/>
		</g>
		<g>
			<path d="M283.49,737.002H57.614v-42.78H283.49V737.002z M60.276,734.34h220.551v-37.455H60.276V734.34z"/>
		</g>
		<g>
			<path d="M283.49,656.77H57.614v-42.777H283.49V656.77z M60.276,654.107h220.551v-37.452H60.276V654.107z"/>
		</g>
		<g>
			<path d="M170.553,531.648c-15.198,0-27.562-12.363-27.562-27.561c0-15.198,12.364-27.562,27.562-27.562
				c15.195,0,27.559,12.363,27.559,27.562C198.112,519.285,185.748,531.648,170.553,531.648z M170.553,479.188
				c-13.729,0-24.899,11.17-24.899,24.899c0,13.729,11.17,24.898,24.899,24.898c13.729,0,24.896-11.17,24.896-24.898
				C195.449,490.359,184.282,479.188,170.553,479.188z"/>
		</g>
		<g>
			<path d="M121.13,575.852l-2.205-2.533c-10.848-12.454-16.823-28.406-16.823-44.914c0-37.744,30.708-68.449,68.451-68.449
				c37.743,0,68.448,30.705,68.448,68.449c0,16.511-5.973,32.462-16.82,44.914l-2.205,2.533l-0.13-3.354
				c-0.712-18.558-15.819-33.092-34.395-33.092h-29.8c-18.576,0-33.682,14.534-34.392,33.092L121.13,575.852z M155.652,536.742h29.8
				c18.893,0,34.457,13.958,36.784,32.341c9.116-11.57,14.103-25.89,14.103-40.679c0-36.274-29.511-65.786-65.786-65.786
				c-36.277,0-65.789,29.512-65.789,65.786c0,14.786,4.987,29.108,14.105,40.679C121.195,550.7,136.756,536.742,155.652,536.742z"/>
		</g>
		<g>
			<path d="M170.553,596.853c-19.792,0-38.609-8.578-51.628-23.534l-0.346-0.397l0.018-0.528
				c0.765-19.989,17.042-35.65,37.055-35.65h29.8c20.011,0,36.29,15.661,37.057,35.65l0.018,0.528l-0.346,0.397
				C209.157,588.274,190.34,596.853,170.553,596.853z M121.283,571.969c12.499,14.13,30.424,22.221,49.27,22.221
				c18.84,0,36.766-8.091,49.27-22.221c-0.975-18.302-15.973-32.563-34.371-32.563h-29.8
				C137.25,539.405,122.255,553.667,121.283,571.969z"/>
		</g>
		<g>
			<rect x="122.097" y="634.053" width="96.912" height="2.662"/>
		</g>
		<g>
			<rect x="122.097" y="674.165" width="96.912" height="2.662"/>
		</g>
		<g>
			<rect x="122.097" y="714.279" width="96.912" height="2.663"/>
		</g>
	</g>
	<g>
		<rect x="1215.214" y="689.381" transform="matrix(0.721 0.693 -0.693 0.721 831.6449 -683.9318)" width="99.733" height="2.662"/>
	</g>
	<g>
		<rect x="1189.953" y="707.043" transform="matrix(0.721 0.693 -0.693 0.721 831.6738 -648.7643)" width="63.015" height="2.663"/>
	</g>
	<g>
		<g>
			
				<rect x="1172.133" y="126.88" transform="matrix(0.7071 0.7071 -0.7071 0.7071 437.4307 -799.5402)" width="23.264" height="2.662"/>
		</g>
		<g>
			
				<rect x="1182.434" y="116.581" transform="matrix(0.7072 0.707 -0.707 0.7072 437.2565 -799.3994)" width="2.662" height="23.264"/>
		</g>
	</g>
	<g>
		<g>
			
				<rect x="1239.31" y="149.286" transform="matrix(0.7071 0.7072 -0.7072 0.7071 475.2487 -845.9884)" width="38.795" height="2.662"/>
		</g>
		<g>
			
				<rect x="1257.378" y="131.222" transform="matrix(0.7071 0.7071 -0.7071 0.7071 475.1713 -845.9266)" width="2.663" height="38.794"/>
		</g>
	</g>
	<g>
		<path d="M1215.483,161.143c-5.804,0-10.525-4.722-10.525-10.525c0-5.803,4.722-10.522,10.525-10.522s10.525,4.719,10.525,10.522
			C1226.009,156.421,1221.287,161.143,1215.483,161.143z M1215.483,142.758c-4.334,0-7.862,3.525-7.862,7.86
			s3.528,7.863,7.862,7.863c4.335,0,7.863-3.528,7.863-7.863S1219.818,142.758,1215.483,142.758z"/>
	</g>
	<g>
		<rect x="1237.116" y="105.563" width="21.592" height="2.663"/>
	</g>
	<g>
		<rect x="1152.914" y="154.487" width="27.291" height="2.663"/>
	</g>
	<g>
		<rect x="1293.695" y="154.487" width="21.966" height="2.663"/>
	</g>
	<g>
		<path d="M411.928,130.415c4.205-5.604,10.281-8.406,18.235-8.406c8.006,0,14.108,2.777,18.313,8.331
			c3.752,5.052,5.626,11.683,5.626,19.886c0,8.255-1.875,14.857-5.626,19.811c-4.205,5.504-10.307,8.255-18.313,8.255
			c-8.003,0-14.082-2.751-18.235-8.255c-3.752-4.953-5.626-11.555-5.626-19.811C406.302,142.071,408.176,135.467,411.928,130.415z
			 M413.806,168.309c3.7,5.206,9.155,7.806,16.357,7.806c7.254,0,12.733-2.6,16.436-7.806c3.25-4.55,4.878-10.58,4.878-18.084
			c0-7.455-1.651-13.481-4.953-18.084c-3.752-5.255-9.205-7.881-16.36-7.881c-7.153,0-12.605,2.626-16.357,7.881
			c-3.253,4.603-4.878,10.629-4.878,18.084S410.553,163.707,413.806,168.309z"/>
		<path d="M464.16,123.21h2.551l33.843,49.678V123.21h2.476v53.955h-2.476l-33.918-49.603v49.603h-2.476V123.21z"/>
		<path d="M515.411,123.21h2.553v51.553h28.591v2.402h-31.145V123.21z"/>
		<path d="M553.906,123.21h2.475v53.955h-2.475V123.21z"/>
		<path d="M569.065,123.21h2.551l33.843,49.678V123.21h2.475v53.955h-2.475l-33.919-49.603v49.603h-2.475V123.21z"/>
		<path d="M620.243,123.21h32.941v2.402h-30.39v22.286h24.087v2.327h-24.087v24.538h31.142v2.402h-33.692V123.21z"/>
		<path d="M716.443,137.469c0,4.353-1.35,7.905-4.052,10.656c-1.802,1.802-4.228,3-7.28,3.601c-1.75,0.351-4.527,0.525-8.328,0.525
			h-11.932v24.915h-2.55V123.21h14.706C709.963,123.21,716.443,127.963,716.443,137.469z M684.851,125.461v24.538h10.281
			c6.253,0,10.429-0.473,12.533-1.425c4.101-1.802,6.151-5.577,6.151-11.332c0-6.503-3.328-10.281-9.979-11.332
			c-1.803-0.299-4.681-0.45-8.63-0.45H684.851z"/>
		<path d="M734.228,123.21h2.853l20.486,53.955h-2.478l-6.979-18.385h-25.138l-7.054,18.385h-2.476L734.228,123.21z M747.21,156.528
			l-11.558-30.39l-11.781,30.39H747.21z"/>
		<path d="M771.071,153.301l-18.533-30.091h2.853l17.033,27.541l16.81-27.541h2.85l-18.533,30.242v23.713h-2.479V153.301z"/>
		<path d="M798.392,123.21h3.601l19.66,37.972l18.91-37.972h3.528v53.955h-2.251v-50.804l-19.512,37.897h-1.5l-20.188-37.897v50.804
			h-2.249V123.21z"/>
		<path d="M856.397,123.21h32.941v2.402h-30.391v22.286h24.088v2.327h-24.088v24.538h31.142v2.402h-33.692V123.21z"/>
		<path d="M898.946,123.21h2.551l33.843,49.678V123.21h2.476v53.955h-2.476l-33.918-49.603v49.603h-2.476V123.21z"/>
		<path d="M961.979,125.537h-16.81v-2.327h36.17v2.327h-16.81v51.628h-2.551V125.537z"/>
	</g>
	<g>
		<path d="M1049.408,157.149h-41.662c-0.736,0-1.331-0.596-1.331-1.332s0.595-1.331,1.331-1.331h41.662
			c0.735,0,1.331,0.595,1.331,1.331S1050.144,157.149,1049.408,157.149z"/>
	</g>
	<g>
		<path d="M377.945,157.149h-41.662c-0.736,0-1.331-0.596-1.331-1.332s0.595-1.331,1.331-1.331h41.662
			c0.736,0,1.331,0.595,1.331,1.331S378.681,157.149,377.945,157.149z"/>
	</g>
	<g>
		<path fill="#FFFFFF" d="M531.485,680.603c-3.518-3.521-8.204-5.46-13.196-5.46c-4.636,0-9.062,1.697-12.486,4.781l-1.989-1.986
			l4.847-4.844c3.523-3.523,5.463-8.217,5.463-13.212c-0.002-4.994-1.945-9.686-5.471-13.206c-3.513-3.515-8.193-5.449-13.18-5.449
			c-4.641,0-9.069,1.697-12.499,4.786l-1.981-1.986l3.138-3.136c3.526-3.523,5.468-8.216,5.471-13.214
			c0.003-4.997-1.935-9.688-5.458-13.208c-3.516-3.519-8.201-5.455-13.193-5.455c-4.644,0-9.077,1.7-12.514,4.794l-1.986-1.994
			l62.98-62.978c7.273-7.28,7.281-19.116,0.013-26.387c-3.526-3.528-8.219-5.471-13.214-5.471c-4.99,0-9.675,1.94-13.193,5.458
			L392.776,622.7l-30.313,2.86l-1.292,1.175c-4.022,4.025-17,18.586-15.276,37.016l-0.744,38.431
			c-1.225,2.534-2.811,5.483-4.441,8.192c-1.648,2.743-6.589,8.685-10.557,13.456l-2.221,2.673l78.17,78.168l18.888-18.891
			l0.608,0.219c-0.003,0,2.79,0.494,7.187,0.494c7.176,0,20.64-1.423,30.167-10.949l68.532-68.534
			c3.523-3.521,5.462-8.211,5.462-13.206S535.008,684.121,531.485,680.603z"/>
		<polygon fill="#FFFFFF" points="290.635,739.29 393.551,842.206 416.614,819.135 313.698,716.219 		"/>
		<polygon fill="#FFFFFF" points="281.215,979.981 404.695,857.289 275.539,728.139 22.078,979.981 		"/>
		<path d="M533.466,678.624c-3.978-3.976-9.524-6.259-15.213-6.259c-1.183,0-2.374,0.099-3.541,0.291l-2.148,0.356l1.146-1.846
			c5.265-8.503,3.999-19.387-3.076-26.467c-4.038-4.035-9.407-6.259-15.123-6.259c-1.474,0-2.957,0.153-4.413,0.452l-2.015,0.406
			l0.938-1.828c4.277-8.331,2.707-18.367-3.903-24.975c-4.043-4.043-9.415-6.271-15.123-6.271c-0.892,0-1.789,0.055-2.688,0.167
			l-2.834,0.34l55.929-55.929c8.357-8.361,8.362-21.963,0.008-30.322c-4.056-4.054-9.454-6.287-15.2-6.287
			c-5.733,0-11.116,2.223-15.156,6.261l-99.585,99.507l-30.185,2.858l-0.489,0.426c-0.218,0.19-0.793,0.699-1.604,1.508
			c-5.426,5.433-17.857,20.11-16.076,39.114l-0.65,37.304c-0.354,0.788-1.7,3.683-4.147,7.782
			c-1.623,2.681-7.361,9.546-10.786,13.641l-1.56,1.945l-12.267-12.26l-25.042,25.039l-13.118-13.118L18.149,979.981h3.929
			l253.461-251.843l129.156,129.15l-123.48,122.692h3.952l123.467-122.692l-13.121-13.12l25.04-25.039l-12.486-12.491l17.91-17.764
			l0.346,0.041c1.435,0.177,3.75,0.385,6.636,0.385c9.202,0,22.218-2.046,31.966-11.789l68.534-68.528
			C541.826,700.613,541.831,686.994,533.466,678.624z M416.614,819.135l-23.063,23.071L290.635,739.29l23.063-23.071
			L416.614,819.135z M531.485,707.01l-68.532,68.534c-9.527,9.526-22.991,10.949-30.167,10.949c-4.397,0-7.189-0.494-7.187-0.494
			l-0.608-0.219l-18.888,18.891l-78.17-78.168l2.221-2.673c3.968-4.771,8.908-10.713,10.557-13.456
			c1.63-2.709,3.216-5.658,4.441-8.192l0.744-38.431c-1.724-18.43,11.253-32.99,15.276-37.016l1.292-1.175l30.313-2.86
			l100.261-100.264c3.518-3.518,8.203-5.458,13.193-5.458c4.995,0,9.688,1.942,13.214,5.471c7.268,7.271,7.26,19.106-0.013,26.387
			l-62.98,62.978l1.986,1.994c3.438-3.094,7.871-4.794,12.514-4.794c4.993,0,9.678,1.937,13.193,5.455
			c3.523,3.521,5.46,8.211,5.458,13.208c-0.002,4.998-1.945,9.69-5.471,13.214l-3.138,3.136l1.981,1.986
			c3.429-3.089,7.857-4.786,12.499-4.786c4.987,0,9.667,1.935,13.18,5.449c3.526,3.521,5.468,8.212,5.471,13.206
			c0,4.995-1.939,9.688-5.463,13.212l-4.847,4.844l1.989,1.986c3.424-3.084,7.85-4.781,12.486-4.781
			c4.992,0,9.678,1.939,13.196,5.46c3.523,3.519,5.462,8.206,5.462,13.201S535.008,703.489,531.485,707.01z"/>
	</g>
	<g>
		<path fill="#FFFFFF" d="M1209.933,738.17c0-10.133-8.243-18.378-18.376-18.378H967.119c-10.133,0-18.375,8.245-18.375,18.378
			v73.669h261.188V738.17z M966.88,738.481h100.107v21.823H966.88V738.481z M1117.35,793.152H966.88v-21.823h150.47V793.152z"/>
		<path fill="#FFFFFF" d="M967.119,890.132h224.438c10.133,0,18.376-8.242,18.376-18.375v-13.409H948.744v13.409
			C948.744,881.89,956.986,890.132,967.119,890.132z"/>
		<rect x="969.542" y="773.991" fill="#FFFFFF" width="145.145" height="16.498"/>
		<rect x="969.542" y="741.145" fill="#FFFFFF" width="94.783" height="16.497"/>
		<rect x="948.744" y="814.502" fill="#FFFFFF" width="261.188" height="41.184"/>
		<path d="M1191.557,717.129H967.119c-11.6,0-21.038,9.438-21.038,21.041v73.669h2.663V738.17c0-10.133,8.242-18.378,18.375-18.378
			h224.438c10.133,0,18.376,8.245,18.376,18.378v73.669h2.662V738.17C1212.595,726.567,1203.156,717.129,1191.557,717.129z"/>
		<path d="M1209.933,871.757c0,10.133-8.243,18.375-18.376,18.375H967.119c-10.133,0-18.375-8.242-18.375-18.375v-13.409h-2.663
			v13.409c0,11.599,9.438,21.037,21.038,21.037h224.438c11.6,0,21.038-9.438,21.038-21.037v-13.409h-2.662V871.757z"/>
		<rect x="946.081" y="814.502" width="2.663" height="41.184"/>
		<rect x="1209.933" y="814.502" width="2.662" height="41.184"/>
		<polygon points="948.744,811.839 946.081,811.839 946.081,814.502 948.744,814.502 1209.933,814.502 1212.595,814.502 
			1212.595,811.839 1209.933,811.839 		"/>
		<polygon points="948.744,855.686 946.081,855.686 946.081,858.348 948.744,858.348 1209.933,858.348 1212.595,858.348 
			1212.595,855.686 1209.933,855.686 		"/>
		<path d="M1066.987,738.481H966.88v21.823h100.107V738.481z M1064.325,757.642h-94.783v-16.497h94.783V757.642z"/>
		<path d="M966.88,793.152h150.47v-21.823H966.88V793.152z M969.542,773.991h145.145v16.498H969.542V773.991z"/>
	</g>
	<g>
		<path fill="#FFFFFF" d="M1175.54,323.121c-8.109,0-14.706,6.596-14.706,14.706s6.597,14.709,14.706,14.709
			c8.11,0,14.706-6.599,14.706-14.709S1183.65,323.121,1175.54,323.121z"/>
		<path fill="#FFFFFF" d="M1293.797,323.121c-8.109,0-14.709,6.596-14.709,14.706s6.6,14.709,14.709,14.709
			c8.107,0,14.704-6.599,14.704-14.709S1301.904,323.121,1293.797,323.121z"/>
		<path fill="#FFFFFF" d="M1175.54,311.093c-14.742,0-26.734,11.992-26.734,26.734s11.992,26.737,26.734,26.737
			c14.743,0,26.734-11.995,26.734-26.737S1190.283,311.093,1175.54,311.093z M1175.54,355.199c-9.576,0-17.368-7.792-17.368-17.372
			c0-9.576,7.792-17.369,17.368-17.369s17.369,7.792,17.369,17.369C1192.909,347.406,1185.116,355.199,1175.54,355.199z"/>
		<path fill="#FFFFFF" d="M1293.797,311.093c-14.743,0-26.737,11.992-26.737,26.734s11.994,26.737,26.737,26.737
			c14.74,0,26.732-11.995,26.732-26.737S1308.537,311.093,1293.797,311.093z M1293.797,355.199c-9.579,0-17.371-7.792-17.371-17.372
			c0-9.576,7.792-17.369,17.371-17.369c9.576,0,17.366,7.792,17.366,17.369C1311.163,347.406,1303.373,355.199,1293.797,355.199z"/>
		<path d="M1175.54,308.43c-16.209,0-29.396,13.188-29.396,29.397c0,16.212,13.188,29.4,29.396,29.4
			c16.21,0,29.397-13.188,29.397-29.4C1204.938,321.618,1191.75,308.43,1175.54,308.43z M1175.54,364.564
			c-14.742,0-26.734-11.995-26.734-26.737s11.992-26.734,26.734-26.734c14.743,0,26.734,11.992,26.734,26.734
			S1190.283,364.564,1175.54,364.564z"/>
		<path d="M1175.54,320.458c-9.576,0-17.368,7.792-17.368,17.369c0,9.579,7.792,17.372,17.368,17.372s17.369-7.792,17.369-17.372
			C1192.909,328.251,1185.116,320.458,1175.54,320.458z M1175.54,352.536c-8.109,0-14.706-6.599-14.706-14.709
			s6.597-14.706,14.706-14.706c8.11,0,14.706,6.596,14.706,14.706S1183.65,352.536,1175.54,352.536z"/>
		<path d="M1293.797,308.43c-16.212,0-29.399,13.188-29.399,29.397c0,16.212,13.188,29.4,29.399,29.4
			c16.209,0,29.395-13.188,29.395-29.4C1323.191,321.618,1310.006,308.43,1293.797,308.43z M1293.797,364.564
			c-14.743,0-26.737-11.995-26.737-26.737s11.994-26.734,26.737-26.734c14.74,0,26.732,11.992,26.732,26.734
			S1308.537,364.564,1293.797,364.564z"/>
		<path d="M1293.797,320.458c-9.579,0-17.371,7.792-17.371,17.369c0,9.579,7.792,17.372,17.371,17.372
			c9.576,0,17.366-7.792,17.366-17.372C1311.163,328.251,1303.373,320.458,1293.797,320.458z M1293.797,352.536
			c-8.109,0-14.709-6.599-14.709-14.709s6.6-14.706,14.709-14.706c8.107,0,14.704,6.596,14.704,14.706
			S1301.904,352.536,1293.797,352.536z"/>
	</g>
</g>
</svg>
